<svg width="90" height="90" viewBox="0 0 90 90" fill="none" xmlns="http://www.w3.org/2000/svg">
<g filter="url(#filter0_d_2369_3)">
<path d="M10 26C10 14.9543 18.9543 6 30 6H60C71.0457 6 80 14.9543 80 26V76H30C18.9543 76 10 67.0457 10 56V26Z" fill="#FF5500"/>
</g>
<g clip-path="url(#clip0_2369_3)">
<path d="M55.9484 29.9933C59.0582 27.3437 60.4238 24.5679 59.3477 23.0094C57.3957 20.575 52.3043 23.0762 49.7809 24.8129C49.0758 25.2953 48.4152 25.8148 47.8141 26.3418H38.0766L35.0781 29.0879L35.8277 29.9117L38.507 27.4699H46.6637C46.0031 28.175 45.491 28.8281 45.0457 29.5926C41.6613 29.689 41.6391 34.5504 45.0234 34.684C47.6953 34.6617 48.5266 31.0844 46.1813 29.8746C46.2109 29.8301 46.2332 29.7929 46.2629 29.7484C46.7602 28.9914 47.443 28.2195 48.2445 27.4699H51.4879L58.9395 34.209V54.3742H60.0527V33.7043L55.9484 29.9933ZM43.591 32.1308C43.591 31.5297 43.9695 31.0101 44.4965 30.8023C44.207 31.7152 44.259 32.5094 44.6746 33.1031C44.7934 33.2738 44.9418 33.4222 45.1051 33.5558C44.2961 33.6152 43.591 32.9472 43.591 32.1308ZM46.4559 32.1308C46.4559 32.4129 46.3742 32.6726 46.2332 32.8879C45.9363 32.7988 45.7211 32.6652 45.5949 32.4722C45.35 32.116 45.3871 31.5445 45.6617 30.8543C46.1293 31.0918 46.4559 31.5742 46.4559 32.1308ZM49.573 26.3492C51.3914 24.9316 53.8258 23.6699 55.6441 23.2914C57.0246 22.9871 58.0711 23.1207 58.4348 23.6476C59.0434 24.5383 57.9672 26.8539 55.1172 29.2437L51.9184 26.3566H49.573V26.3492Z" fill="white"/>
<path d="M58.9379 58.8868H31.1133V34.2016L34.9949 30.6688L34.2453 29.845L30 33.7118V60H60.0512V55.4801H58.9379V58.8868Z" fill="white"/>
<path d="M57.0957 47.0784V45.9651H54.1641V52.7264H57.0957V51.6131H55.2773V49.9061H56.925V48.7928H55.2773V47.0858H57.0957V47.0784Z" fill="white"/>
<path d="M46.8762 49.342C46.802 52.0139 50.1493 53.8323 52.2126 52.0436C52.3165 51.9545 52.413 51.8506 52.502 51.7467L51.6485 51.0342C51.5966 51.101 51.5372 51.1604 51.4704 51.2124C50.0973 52.3553 47.9301 51.0713 47.9895 49.342C47.9672 47.5311 50.0825 46.4104 51.5594 47.442L52.1829 46.5217C49.9786 44.9854 46.8391 46.6553 46.8762 49.342Z" fill="white"/>
<path d="M44.2344 45.9504H45.3477V52.6375H44.2344V45.9504Z" fill="white"/>
<path d="M38.0469 45.8909V52.6225H39.1602V50.1213L41.6984 53.0084L42.5371 52.2737L40.4812 49.9358C43.0121 49.4534 42.7078 45.9577 40.1176 45.8909H38.0469ZM41.127 47.9245C41.127 48.4217 40.6668 48.8448 40.1176 48.8448C39.8949 48.8448 39.5016 48.8448 39.1676 48.8448C39.1676 48.5182 39.1602 47.3381 39.1602 46.9967H40.1176C40.6668 47.0041 41.127 47.4272 41.127 47.9245Z" fill="white"/>
<path d="M33.5039 52.6375V50.2328C33.8602 50.2328 34.298 50.2254 34.5355 50.2254C37.4449 50.1141 37.4449 46.0023 34.5355 45.8984H32.3906V52.6301L33.5039 52.6375ZM34.5355 47.0191C35.1219 47.0191 35.6191 47.5016 35.6191 48.073C35.6191 48.6445 35.1219 49.127 34.5355 49.127C34.298 49.127 33.8676 49.127 33.5113 49.1344C33.5113 48.7707 33.5039 47.4051 33.5039 47.0266L34.5355 47.0191Z" fill="white"/>
<path d="M50.4453 38.1499H52.1969V43.7237H53.3102V38.1499H55.0766V37.0366H50.4453V38.1499Z" fill="white"/>
<path d="M47.3387 42.6773C46.7301 42.6773 46.1438 42.4323 45.7652 42.0167L44.9414 42.7663C46.2106 44.221 49.1199 44.2136 49.5801 42.0983C49.7137 41.3636 49.3723 40.4062 48.0215 39.9089C47.2941 39.6417 46.6262 39.3523 46.4481 39.2706C46.2848 39.1444 46.2031 38.9515 46.2328 38.7437C46.2699 38.4765 46.4852 38.2538 46.7969 38.1573C47.6875 37.8901 48.4965 38.5433 48.5113 38.5507L49.2238 37.6972C49.1719 37.6526 47.9547 36.6507 46.4777 37.096C45.7504 37.3187 45.2383 37.8901 45.1344 38.5878C45.0379 39.2409 45.3273 39.8718 45.8766 40.228L45.9137 40.2503L45.9508 40.2651C45.9805 40.28 46.7598 40.6288 47.643 40.948C48.2516 41.1706 48.5559 41.5194 48.4891 41.898C48.4223 42.2839 47.9695 42.6773 47.3387 42.6773Z" fill="white"/>
<path d="M43.4473 38.1204V37.0071H40.5156V43.7684H43.4473V42.6551H41.6289V40.9481H43.2766V39.8348H41.6289V38.1278H43.4473V38.1204Z" fill="white"/>
<path d="M36.6219 36.9847H34.4102V43.798C34.4102 43.798 36.4883 43.7906 36.9113 43.7906C38.9598 43.7831 39.7613 41.141 38.1062 39.9906C39.0488 38.7882 38.1582 36.9699 36.6219 36.9847ZM35.5309 38.098H36.6293C37.6312 38.1351 37.6312 39.5675 36.6293 39.6046C36.5105 39.6046 35.5309 39.6046 35.5309 39.6046V38.098ZM36.9113 42.6699C36.659 42.6699 36.0059 42.6699 35.5234 42.6773V40.7179C35.6793 40.7179 36.9113 40.7179 36.9113 40.7179C38.2102 40.7699 38.2102 42.6253 36.9113 42.6699Z" fill="white"/>
<path d="M47.918 55.9995H46.8047V54.8862H47.918V55.9995ZM45.6914 55.9995H44.5781V54.8862H45.6914V55.9995ZM43.4648 55.9995H42.3516V54.8862H43.4648V55.9995Z" fill="white"/>
</g>
<defs>
<filter id="filter0_d_2369_3" x="0" y="0" width="90" height="90" filterUnits="userSpaceOnUse" color-interpolation-filters="sRGB">
<feFlood flood-opacity="0" result="BackgroundImageFix"/>
<feColorMatrix in="SourceAlpha" type="matrix" values="0 0 0 0 0 0 0 0 0 0 0 0 0 0 0 0 0 0 127 0" result="hardAlpha"/>
<feOffset dy="4"/>
<feGaussianBlur stdDeviation="5"/>
<feComposite in2="hardAlpha" operator="out"/>
<feColorMatrix type="matrix" values="0 0 0 0 0 0 0 0 0 0 0 0 0 0 0 0 0 0 0.1 0"/>
<feBlend mode="normal" in2="BackgroundImageFix" result="effect1_dropShadow_2369_3"/>
<feBlend mode="normal" in="SourceGraphic" in2="effect1_dropShadow_2369_3" result="shape"/>
</filter>
<clipPath id="clip0_2369_3">
<rect width="30.0512" height="38" fill="white" transform="translate(30 22)"/>
</clipPath>
</defs>
</svg>
