<svg width="92" height="92" viewBox="0 0 92 92" fill="none" xmlns="http://www.w3.org/2000/svg">
<g filter="url(#filter0_d_2362_17)">
<path d="M11 27C11 15.9543 19.9543 7 31 7H61C72.0457 7 81 15.9543 81 27V77H31C19.9543 77 11 68.0457 11 57V27Z" fill="#FF5500"/>
</g>
<g clip-path="url(#clip0_2362_17)">
<path d="M32.2626 44.9205C33.4946 44.9205 34.494 43.9211 34.494 42.6891C34.494 41.4571 33.4946 40.4578 32.2626 40.4578C31.0306 40.4578 30.0312 41.4571 30.0312 42.6891C30.0312 43.9211 31.0306 44.9119 32.2626 44.9205ZM32.2626 41.6639C32.8312 41.6639 33.2879 42.1205 33.2879 42.6891C33.2879 43.2578 32.8312 43.7144 32.2626 43.7144C31.694 43.7144 31.2374 43.2578 31.2374 42.6891C31.2374 42.1205 31.694 41.6639 32.2626 41.6639Z" fill="white"/>
<path d="M60.5751 44.9205C61.8071 44.9205 62.8065 43.9211 62.8065 42.6891C62.8065 41.4571 61.8071 40.4578 60.5751 40.4578C59.3431 40.4578 58.3438 41.4571 58.3438 42.6891C58.3437 43.9211 59.3431 44.9119 60.5751 44.9205ZM60.5751 41.6639C61.1438 41.6639 61.6004 42.1205 61.6004 42.6891C61.6004 43.2578 61.1438 43.7144 60.5751 43.7144C60.0065 43.7144 59.5499 43.2578 59.5499 42.6891C59.5499 42.1205 60.0065 41.6639 60.5751 41.6639Z" fill="white"/>
<path d="M36.0992 42.8614H56.7502C57.0862 42.8614 57.3533 42.5944 57.3533 42.2584C57.3533 41.9224 57.0862 41.6553 56.7502 41.6553H36.0992C35.7632 41.6553 35.4961 41.9224 35.4961 42.2584C35.4961 42.5944 35.7632 42.8614 36.0992 42.8614Z" fill="white"/>
<path d="M36.0992 44.8431H56.7502C57.0862 44.8431 57.3533 44.576 57.3533 44.24C57.3533 43.904 57.0862 43.637 56.7502 43.637H36.0992C35.7632 43.637 35.4961 43.904 35.4961 44.24C35.4961 44.576 35.7632 44.8431 36.0992 44.8431Z" fill="white"/>
<path d="M65.9237 39.1483C65.6222 38.0972 64.9157 37.1495 64.0111 36.4431H65.9754C66.3114 36.4431 66.5785 36.176 66.5785 35.84C66.5785 34.3151 65.3465 33.0831 63.8216 33.0831H63.5631C62.7102 33.0831 61.909 33.4794 61.3834 34.1514L59.781 30.4554C59.1348 28.9735 57.6788 28.0172 56.0677 28.0172L36.8727 28C35.2788 28 33.84 28.9391 33.1853 30.3865L31.7723 33.4966C31.2727 33.0658 30.6265 32.8246 29.9631 32.8246H29.7047C28.1797 32.8246 26.9477 34.0566 26.9477 35.5815C26.9477 35.9175 27.2148 36.1846 27.5508 36.1846H29.1791C28.1022 36.8997 27.2493 37.968 26.9133 39.1483C26.3102 41.2677 26.1207 42.1723 26.0603 42.5945C26.0259 42.672 26 42.7668 26 42.8529V47.8412C25.9914 49.8142 27.3527 51.52 29.2739 51.9508V54.4923C29.2739 55.3108 29.9373 55.9828 30.7557 56H33.4437C34.2708 55.9914 34.9428 55.3194 34.96 54.4923V52.0369H57.7047V54.4923C57.7133 55.3194 58.3767 55.9828 59.1951 56H62.0813C62.8997 55.9828 63.5631 55.3194 63.5631 54.4923V51.9508C65.4843 51.52 66.8456 49.8055 66.837 47.8412V42.8529C66.837 42.784 66.8283 42.7151 66.8025 42.6548C66.768 42.2326 66.5785 41.3108 65.9237 39.1483ZM63.5631 34.2892H63.8216C64.4419 34.2892 65.0105 34.6597 65.2517 35.2369H62.133C62.3742 34.6597 62.9428 34.2892 63.5631 34.2892ZM34.2794 30.8862C34.736 29.8695 35.7527 29.2148 36.8727 29.2062L56.0677 29.2234C57.1963 29.2234 58.2216 29.8954 58.6782 30.9378L60.5477 35.2455H42.3176C41.749 33.0831 39.5262 31.7908 37.3723 32.368C35.968 32.7385 34.8653 33.8412 34.4948 35.2455H32.6942C32.6683 35.056 32.6253 34.8665 32.565 34.6769L34.2794 30.8862ZM41.0511 35.2369H35.7527C36.3213 33.7723 37.9754 33.0486 39.44 33.6258C40.181 33.9102 40.7668 34.496 41.0511 35.2369ZM29.7047 34.0308H29.9631C30.4714 34.0308 30.9453 34.2806 31.2296 34.6942L31.109 34.9785H28.2745C28.5157 34.4012 29.0843 34.0308 29.7047 34.0308ZM28.0677 39.4843C28.5416 37.8388 30.3853 36.4431 32.0997 36.4431H60.7373C62.4517 36.4431 64.2954 37.8388 64.7693 39.4843V39.4929C65.1397 40.7249 65.5447 42.2154 65.605 42.6806C65.3723 42.9563 64.5711 43.568 63.8991 44.0246C62.3483 45.0585 59.4708 45.92 57.6099 45.92H35.3305C33.4696 45.92 30.5834 45.0671 29.024 44.0418H29.0154C28.2487 43.5508 27.4733 42.9735 27.2493 42.7151C27.3182 42.2498 27.7145 40.7422 28.0677 39.4843ZM53.4314 47.1262L53.1213 48.0308C52.8973 48.6942 52.0874 49.28 51.3896 49.28H40.3705C39.6727 49.28 38.8714 48.6942 38.656 48.0308L38.3631 47.1262H53.4314ZM33.7539 54.4923C33.7367 54.656 33.6074 54.7766 33.4437 54.7938H30.7557C30.6007 54.7766 30.48 54.6474 30.48 54.4923V52.0369H33.7539V54.4923ZM62.0813 54.7938H59.1951C59.04 54.7852 58.9108 54.656 58.9108 54.4923V52.0369H62.357V54.4923C62.357 54.6474 62.2363 54.7766 62.0813 54.7938ZM62.6154 50.8308H30.2216C28.5674 50.8394 27.2234 49.5126 27.2062 47.8585V47.8498V44.2658C27.5077 44.4898 27.8868 44.7483 28.3693 45.0498C30.1182 46.2043 33.237 47.1262 35.3305 47.1262H37.0967L37.5102 48.4098C37.8893 49.5729 39.1471 50.4862 40.3705 50.4862H51.3896C52.613 50.4862 53.8708 49.5729 54.2671 48.4185L54.7065 47.1262H57.6013C59.6948 47.1262 62.8136 46.1871 64.5625 45.024C64.976 44.7483 65.3293 44.4985 65.6308 44.2658V47.8498C65.6308 49.504 64.2868 50.8394 62.6327 50.8394C62.624 50.8308 62.624 50.8308 62.6154 50.8308Z" fill="white"/>
</g>
<defs>
<filter id="filter0_d_2362_17" x="0" y="0" width="92" height="92" filterUnits="userSpaceOnUse" color-interpolation-filters="sRGB">
<feFlood flood-opacity="0" result="BackgroundImageFix"/>
<feColorMatrix in="SourceAlpha" type="matrix" values="0 0 0 0 0 0 0 0 0 0 0 0 0 0 0 0 0 0 127 0" result="hardAlpha"/>
<feMorphology radius="1" operator="dilate" in="SourceAlpha" result="effect1_dropShadow_2362_17"/>
<feOffset dy="4"/>
<feGaussianBlur stdDeviation="5"/>
<feComposite in2="hardAlpha" operator="out"/>
<feColorMatrix type="matrix" values="0 0 0 0 0 0 0 0 0 0 0 0 0 0 0 0 0 0 0.1 0"/>
<feBlend mode="normal" in2="BackgroundImageFix" result="effect1_dropShadow_2362_17"/>
<feBlend mode="normal" in="SourceGraphic" in2="effect1_dropShadow_2362_17" result="shape"/>
</filter>
<clipPath id="clip0_2362_17">
<rect width="40.8369" height="28" fill="white" transform="translate(26 28)"/>
</clipPath>
</defs>
</svg>
