<svg width="90" height="90" viewBox="0 0 90 90" fill="none" xmlns="http://www.w3.org/2000/svg">
<g filter="url(#filter0_d_2369_5)">
<path d="M10 26C10 14.9543 18.9543 6 30 6H60C71.0457 6 80 14.9543 80 26V76H30C18.9543 76 10 67.0457 10 56V26Z" fill="#FF5500"/>
</g>
<g clip-path="url(#clip0_2369_5)">
<path d="M35.2503 41.5717H36.6626C37.9657 41.5717 39.0587 40.5376 39.0587 39.2345V38.3013H51.9972V39.2345C51.9972 40.5376 53.0901 41.5717 54.3932 41.5717H55.8056C56.4277 41.5801 57.0246 41.3279 57.4618 40.8907C57.8989 40.4535 58.1427 39.8566 58.1343 39.2345V31.5252C58.1427 30.6509 57.7896 29.8102 57.1675 29.2048L56.6547 28.65L54.7547 23.5301C54.41 22.6053 53.5272 22 52.5436 22.0084H38.8569C37.8733 22 36.9905 22.6137 36.6374 23.5301L34.7626 28.5911L34.0312 29.2889C33.325 29.9026 32.9215 30.7854 32.9299 31.727V39.2345C32.9215 39.8566 33.1653 40.4535 33.6025 40.8907C34.0312 41.3279 34.6281 41.5717 35.2503 41.5717ZM37.7135 39.2345C37.7051 39.5035 37.5958 39.7557 37.4025 39.9407C37.2007 40.1256 36.9401 40.2349 36.6626 40.2265H35.2503C34.9896 40.2265 34.729 40.1256 34.5441 39.9407C34.3591 39.7557 34.2582 39.4951 34.2666 39.2345V38.0659C34.5693 38.2256 34.9056 38.3013 35.2503 38.3013H37.7135V39.2345ZM56.4949 39.9407C56.31 40.1256 56.0578 40.2349 55.7972 40.2265H54.3848C53.8215 40.2265 53.3339 39.7978 53.3339 39.2345V38.3013H55.7972C56.1587 38.3013 56.5286 38.2256 56.7808 38.0743V39.2345C56.7892 39.4951 56.6883 39.7557 56.4949 39.9407ZM37.8985 24.0009C38.0498 23.6057 38.4281 23.3451 38.8569 23.3451H52.5352C52.964 23.3451 53.3423 23.6057 53.4936 24.0009L55.091 28.2969H36.3011L37.8985 24.0009ZM34.2666 31.7102C34.2582 31.1637 34.4936 30.6425 34.9056 30.2894C34.914 30.281 34.914 30.281 34.914 30.2725L35.5949 29.642H55.7299L56.2007 30.138C56.2091 30.1464 56.2007 30.1548 56.2091 30.1633C56.579 30.5164 56.7808 31.004 56.7724 31.5168V35.9221C56.7808 36.1911 56.6799 36.4518 56.4949 36.6451C56.31 36.8385 56.0578 36.9478 55.7972 36.9478H35.2503C34.687 36.9478 34.2666 36.4938 34.2666 35.9305V31.7102Z" fill="white"/>
<path d="M40.7321 32.1643C40.7321 31.7944 40.4294 31.4917 40.0595 31.4917H36.0241C35.6542 31.4917 35.3516 31.7944 35.3516 32.1643V34.9386C35.3516 35.3085 35.6542 35.6112 36.0241 35.6112H40.0595C40.4294 35.6112 40.7321 35.3085 40.7321 34.9386V32.1643ZM36.7051 32.8368H39.3954V34.266H36.7051V32.8368Z" fill="white"/>
<path d="M55.6891 32.1643C55.6891 31.7944 55.3865 31.4917 55.0166 31.4917H50.9812C50.6112 31.4917 50.3086 31.7944 50.3086 32.1643V34.9386C50.3086 35.3085 50.6112 35.6112 50.9812 35.6112H55.0166C55.3865 35.6112 55.6891 35.3085 55.6891 34.9386V32.1643ZM51.6537 32.8368H54.344V34.266H51.6537V32.8368Z" fill="white"/>
<path d="M48.7073 32.7526C48.7073 32.3827 48.4046 32.0801 48.0347 32.0801H42.9148C42.5448 32.0801 42.2422 32.3827 42.2422 32.7526V34.35C42.2422 34.7199 42.5448 35.0226 42.9148 35.0226H48.0347C48.4046 35.0226 48.7073 34.7199 48.7073 34.35V32.7526ZM43.5873 33.4252H47.4546V33.6774H43.5873V33.4252Z" fill="white"/>
<path d="M28.1211 59.445C28.1883 59.8065 28.533 60.0587 28.8945 59.9915L34.3843 59.0331C34.7458 58.9658 34.998 58.6211 34.9308 58.2596L34.8215 57.6459L36.0994 56.6034C36.6038 56.183 37.2427 55.9813 37.8985 56.0317L46.8436 56.6875C46.8604 56.6875 46.8772 56.6875 46.8857 56.6875H46.9445C48.9202 56.6875 50.837 56.0569 52.4343 54.8884C52.4595 54.8715 52.4848 54.8463 52.51 54.8295L63.1618 44.3879C63.414 44.1357 63.4308 43.7321 63.1954 43.4631C61.968 42.0423 59.841 41.8405 58.3613 43.0007L53.4684 46.6578C52.4511 45.4219 50.8454 44.825 49.2649 45.1025L44.2626 45.9768C43.464 46.1113 42.6485 46.0693 41.8666 45.8507L41.3034 45.691C38.4281 44.8671 35.3343 45.506 33.0224 47.406L32.8206 46.2122C32.7534 45.8507 32.4087 45.5985 32.0388 45.6658L26.5573 46.6242C26.1958 46.6914 25.9436 47.0361 26.0109 47.3976L28.1211 59.445ZM40.9503 46.9941L41.5135 47.1538C42.4888 47.4313 43.506 47.4817 44.5065 47.3136L49.5087 46.4392C50.9379 46.187 52.3587 46.9689 52.9135 48.314L45.4228 49.6255C45.1874 49.6675 44.9857 49.8273 44.9016 50.0543C44.8175 50.2813 44.8596 50.5335 45.0193 50.7184C45.1706 50.9034 45.4144 50.9875 45.6582 50.9454L53.8803 49.5078C54.2419 49.4405 54.4941 49.0959 54.4268 48.7344C54.3764 48.4317 54.2839 48.129 54.1746 47.8432L59.1936 44.0936L59.2104 44.0852C59.9334 43.5135 60.9423 43.4631 61.7242 43.9507L51.602 53.8291C50.2485 54.8043 48.6175 55.3339 46.9445 55.3423H46.9193L37.9994 54.6866C37.0073 54.6109 36.0237 54.922 35.2503 55.5609L34.5609 56.1242L33.3082 48.9866C35.3007 46.9773 38.2264 46.2122 40.9503 46.9941ZM31.61 47.1034L33.4848 57.8224L29.3233 58.5539L27.4485 47.8348L31.61 47.1034Z" fill="white"/>
</g>
<defs>
<filter id="filter0_d_2369_5" x="0" y="0" width="90" height="90" filterUnits="userSpaceOnUse" color-interpolation-filters="sRGB">
<feFlood flood-opacity="0" result="BackgroundImageFix"/>
<feColorMatrix in="SourceAlpha" type="matrix" values="0 0 0 0 0 0 0 0 0 0 0 0 0 0 0 0 0 0 127 0" result="hardAlpha"/>
<feOffset dy="4"/>
<feGaussianBlur stdDeviation="5"/>
<feComposite in2="hardAlpha" operator="out"/>
<feColorMatrix type="matrix" values="0 0 0 0 0 0 0 0 0 0 0 0 0 0 0 0 0 0 0.1 0"/>
<feBlend mode="normal" in2="BackgroundImageFix" result="effect1_dropShadow_2369_5"/>
<feBlend mode="normal" in="SourceGraphic" in2="effect1_dropShadow_2369_5" result="shape"/>
</filter>
<clipPath id="clip0_2369_5">
<rect width="37.3611" height="38" fill="white" transform="translate(26 22)"/>
</clipPath>
</defs>
</svg>
