<svg width="90" height="90" viewBox="0 0 90 90" fill="none" xmlns="http://www.w3.org/2000/svg">
<g filter="url(#filter0_d_2368_2)">
<path d="M10 26C10 14.9543 18.9543 6 30 6H60C71.0457 6 80 14.9543 80 26V76H30C18.9543 76 10 67.0457 10 56V26Z" fill="#FF5500"/>
</g>
<g clip-path="url(#clip0_2368_2)">
<path d="M44.6229 36.1387C44.8901 36.391 45.328 36.339 45.5284 36.0347L49.4843 30.0601C49.6624 29.7855 49.5882 29.4144 49.3136 29.2363C49.0464 29.0508 48.6753 29.125 48.4972 29.3996L44.9272 34.7879L42.9456 32.9027C42.7081 32.6801 42.3296 32.6875 42.1069 32.925C41.8843 33.1625 41.8917 33.541 42.1292 33.7637C42.1218 33.7637 44.6155 36.1312 44.6229 36.1387Z" fill="white"/>
<path d="M45.0224 45.2082C45.1337 45.2602 45.2599 45.2898 45.386 45.2898H45.3934C45.5196 45.2898 45.6458 45.2602 45.7645 45.2082C54.8118 40.9035 56.3407 31.6262 56.6005 28.8801C56.6599 28.2566 56.3036 27.6703 55.7247 27.4254C53.9212 26.6758 52.6966 25.0059 52.5333 23.0613C52.4739 22.4676 51.9618 22 51.3606 22H51.3532L39.1665 22.0742C38.5505 22.0742 38.0532 22.5418 38.0087 23.1578C37.8602 25.1023 36.6505 26.7871 34.8618 27.5516C34.2829 27.7965 33.9415 28.3828 34.0083 29.0137C34.2903 31.7523 35.9306 41.0148 45.0224 45.2082ZM35.322 28.6426C37.5188 27.7 38.9958 25.6441 39.1888 23.2543L51.3384 23.1801C51.5536 25.5551 53.0528 27.6035 55.2571 28.5164C55.3536 28.5609 55.413 28.6574 55.4056 28.7613C55.1681 31.3293 53.7431 39.998 45.3786 44.0578C36.977 40.102 35.4556 31.4555 35.1809 28.8875C35.1735 28.7836 35.2255 28.6871 35.322 28.6426Z" fill="white"/>
<path d="M36.8085 31.9453C36.8827 32.2125 37.2167 32.45 37.5359 32.3609C37.855 32.2718 38.0406 31.9453 37.9515 31.6335C37.8031 31.0769 37.6695 30.5054 37.573 29.9488C39.191 28.8949 40.3859 27.3214 40.9796 25.4882L49.5742 25.4363C50.1827 27.2621 51.3999 28.8207 53.0327 29.8597C52.9363 30.4238 52.8175 30.9878 52.6765 31.5519C52.5949 31.871 52.7878 32.1976 53.0995 32.2792C53.4187 32.3609 53.7452 32.1679 53.8269 31.8488C53.9976 31.1882 54.1386 30.5203 54.2425 29.8597C54.3019 29.4886 54.1312 29.1324 53.812 28.9394C52.298 28.0265 51.1773 26.5867 50.6577 24.8945C50.539 24.516 50.1827 24.2488 49.782 24.2488H49.7745L40.7792 24.3007C40.3785 24.3007 40.0222 24.5753 39.9035 24.9539C39.4062 26.6535 38.3003 28.1007 36.7937 29.0359C36.4745 29.2289 36.3113 29.5925 36.3781 29.9636C36.4894 30.6242 36.6304 31.2921 36.8085 31.9453Z" fill="white"/>
<path d="M52.6255 33.7118C52.3212 33.5856 51.9724 33.7341 51.8462 34.0383C50.4731 37.3708 48.2985 39.9016 45.3743 41.5715C42.4352 39.9387 40.2235 37.4227 38.8134 34.1051C38.6872 33.8008 38.3384 33.6598 38.0341 33.7934C37.7298 33.9196 37.5888 34.2684 37.7224 34.5727C39.2661 38.1946 41.6931 40.9333 44.9438 42.6922C45.0774 42.7665 45.2333 42.8036 45.3817 42.8036C45.5376 42.8036 45.686 42.7665 45.827 42.6848C49.0556 40.8813 51.4528 38.1278 52.952 34.4911C53.0708 34.1794 52.9298 33.8305 52.6255 33.7118Z" fill="white"/>
<path d="M28.8148 52.4446C27.657 52.4446 26.707 53.3872 26.707 54.5524C26.707 55.7102 27.6496 56.6602 28.8148 56.6602C29.9727 56.6602 30.9227 55.7176 30.9227 54.5524C30.9227 53.3872 29.9801 52.4446 28.8148 52.4446ZM28.8148 55.4579C28.3102 55.4579 27.902 55.0497 27.902 54.545C27.902 54.0403 28.3102 53.6321 28.8148 53.6321C29.3195 53.6321 29.7277 54.0403 29.7277 54.545C29.7352 55.0497 29.3195 55.4579 28.8148 55.4579Z" fill="white"/>
<path d="M65.182 46.6184C64.4176 45.4977 62.8812 45.2008 61.7605 45.9578L53.9824 51.1605L52.3199 51.0641L52.2754 50.641C52.1121 48.9785 50.8355 47.65 49.1805 47.4125C49.173 47.4125 49.1582 47.4125 49.1508 47.4051L40.7715 46.6703C40.4895 46.6258 39.584 46.366 37.0902 44.9336C35.7914 44.1914 34.3367 43.7684 32.8523 43.7164V42.1578C32.8523 41.3785 32.2141 40.7402 31.4348 40.7402H26.4176C25.6383 40.7477 25 41.3859 25 42.1652V57.4914C25 58.2707 25.6383 58.909 26.4176 58.909H31.4348C32.2141 58.909 32.8523 58.2707 32.8523 57.4914V57.0684L40.1777 59.8441C40.1926 59.8516 40.7863 60.0742 41.8848 59.9703L54.0566 58.2188H54.0641C55.1031 58.0555 56.0828 57.6102 56.8992 56.9496C56.9066 56.9422 56.9141 56.9348 56.9215 56.9273L64.7812 49.8543C65.709 49.0379 65.8797 47.6426 65.182 46.6184ZM63.9871 48.9711L56.1348 56.0367C55.4816 56.5637 54.7023 56.9125 53.8785 57.0461L41.7141 58.7977H41.7066H41.6992C41.3355 58.857 40.957 58.8273 40.5711 58.7234L32.8523 55.7992V49.0082C32.8523 48.6816 32.5852 48.4145 32.2586 48.4145C31.932 48.4145 31.6648 48.6816 31.6648 49.0082V57.4988C31.6648 57.625 31.5609 57.7289 31.4348 57.7289H26.4176C26.2914 57.7289 26.1875 57.625 26.1875 57.4988V42.1652C26.1875 42.0391 26.2914 41.9352 26.4176 41.9352H31.4348C31.5609 41.9352 31.6648 42.0391 31.6648 42.1652V46.3215C31.6648 46.648 31.932 46.9152 32.2586 46.9152C32.5852 46.9152 32.8523 46.648 32.8523 46.3215V44.9187C34.1289 44.9781 35.3832 45.3418 36.4965 45.9801C39.5023 47.702 40.341 47.8207 40.623 47.8652C40.6305 47.8652 40.6453 47.8652 40.6527 47.8727L49.032 48.6074C50.1379 48.7707 50.984 49.6613 51.0953 50.7672L51.125 51.0863L39.9031 51.7766C39.8957 51.7766 39.8883 51.7766 39.8809 51.7766C39.5172 51.7469 39.1906 51.5688 38.9531 51.2941C38.7453 51.0418 38.3668 51.0047 38.1145 51.2199C37.8621 51.4277 37.825 51.8062 38.0402 52.0586C38.4781 52.5855 39.0941 52.8973 39.777 52.9641C40.148 53.0012 51.7781 52.2367 51.7781 52.2367L54.1086 52.3703C54.2348 52.3777 54.3684 52.3406 54.4723 52.2738L62.4137 46.9598C63 46.5664 63.7941 46.7223 64.1875 47.3012C64.566 47.8207 64.4769 48.5406 63.9871 48.9711Z" fill="white"/>
</g>
<defs>
<filter id="filter0_d_2368_2" x="0" y="0" width="90" height="90" filterUnits="userSpaceOnUse" color-interpolation-filters="sRGB">
<feFlood flood-opacity="0" result="BackgroundImageFix"/>
<feColorMatrix in="SourceAlpha" type="matrix" values="0 0 0 0 0 0 0 0 0 0 0 0 0 0 0 0 0 0 127 0" result="hardAlpha"/>
<feOffset dy="4"/>
<feGaussianBlur stdDeviation="5"/>
<feComposite in2="hardAlpha" operator="out"/>
<feColorMatrix type="matrix" values="0 0 0 0 0 0 0 0 0 0 0 0 0 0 0 0 0 0 0.1 0"/>
<feBlend mode="normal" in2="BackgroundImageFix" result="effect1_dropShadow_2368_2"/>
<feBlend mode="normal" in="SourceGraphic" in2="effect1_dropShadow_2368_2" result="shape"/>
</filter>
<clipPath id="clip0_2368_2">
<rect width="40.6125" height="38" fill="white" transform="translate(25 22)"/>
</clipPath>
</defs>
</svg>
