<svg width="90" height="90" viewBox="0 0 90 90" fill="none" xmlns="http://www.w3.org/2000/svg">
<g filter="url(#filter0_d_2369_7)">
<path d="M10 26C10 14.9543 18.9543 6 30 6H60C71.0457 6 80 14.9543 80 26V76H30C18.9543 76 10 67.0457 10 56V26Z" fill="#FF5500"/>
</g>
<g clip-path="url(#clip0_2369_7)">
<path d="M63.3651 56.1999H61.4651V44.1665C61.4649 43.8168 61.1811 43.5335 60.8313 43.5337C60.6249 43.5338 60.4315 43.6345 60.3131 43.8036L51.4464 56.4703C51.2459 56.757 51.3158 57.1519 51.6025 57.3522C51.7088 57.4266 51.8353 57.4665 51.9651 57.4665H60.1985V59.3665C60.1985 59.7163 60.482 59.9999 60.8318 59.9999C61.1815 59.9999 61.4651 59.7163 61.4651 59.3665V57.4665H63.3651C63.7149 57.4665 63.9985 57.183 63.9985 56.8332C63.9985 56.4835 63.7149 56.1999 63.3651 56.1999ZM60.1985 56.1999H53.1811L60.1985 46.1755V56.1999Z" fill="white"/>
<path d="M51.9648 58.7333H44.4668L51.4379 50.5247C51.4537 50.5059 51.4685 50.4862 51.4822 50.4658C52.7937 48.5248 52.3569 45.8968 50.4879 44.4846C48.2154 42.8518 45.0496 43.3704 43.4168 45.6429C42.7977 46.5046 42.4647 47.5389 42.4648 48.6C42.4648 48.9498 42.7484 49.2333 43.0982 49.2333C43.4479 49.2333 43.7315 48.9498 43.7315 48.6C43.7313 46.5013 45.4325 44.7998 47.5311 44.7996C48.3266 44.7995 49.102 45.049 49.7482 45.5131C51.0574 46.5162 51.3622 48.3637 50.4448 49.7343L42.6156 58.9569C42.3892 59.2236 42.422 59.6233 42.6887 59.8496C42.8031 59.9466 42.9482 59.9999 43.0982 60H51.9648C52.3146 60 52.5982 59.7164 52.5982 59.3667C52.5982 59.0169 52.3146 58.7333 51.9648 58.7333Z" fill="white"/>
<path d="M43.1139 55.5787C43.1272 55.2292 42.8544 54.9352 42.5049 54.9219C42.5048 54.9219 42.5047 54.9219 42.5047 54.9219C34.242 54.6152 27.6103 47.9954 27.2888 39.7333H29.8C30.1498 39.7333 30.4333 39.4498 30.4333 39.1C30.4333 38.7502 30.1498 38.4667 29.8 38.4667H27.2888C27.6057 30.2192 34.2191 23.6061 42.4667 23.2895V25.1667C42.4667 25.5164 42.7502 25.8 43.1 25.8C43.4498 25.8 43.7333 25.5164 43.7333 25.1667V23.2895C51.868 23.6041 58.4335 30.0455 58.9029 38.1728L56.4329 35.7028C56.1813 35.4598 55.7804 35.4667 55.5374 35.7183C55.3004 35.9637 55.3004 36.3528 55.5374 36.5983L59.0727 40.1336C59.1392 40.2142 59.2251 40.2767 59.3222 40.3154C59.347 40.3228 59.3722 40.329 59.3976 40.3337C59.441 40.3494 59.486 40.3603 59.5318 40.366C59.5382 40.366 59.5439 40.366 59.5502 40.366C59.5565 40.366 59.5622 40.366 59.5679 40.366C59.6161 40.3624 59.6638 40.3531 59.7098 40.3382C59.7359 40.335 59.7617 40.3302 59.7871 40.3236C59.8728 40.2931 59.9509 40.2443 60.0157 40.1805L63.5991 36.5983C63.8421 36.3467 63.8352 35.9458 63.5836 35.7028C63.3382 35.4658 62.9491 35.4658 62.7036 35.7028L60.1721 38.2323C59.7197 29.1543 52.2343 22.0222 43.145 22.0089C43.1291 22.0082 43.1158 22 43.1 22C43.0842 22 43.0709 22.0082 43.055 22.0089C33.6461 22.0218 26.0218 29.6461 26.0089 39.055C26.0089 39.0709 26 39.0842 26 39.1C26 39.1158 26.0082 39.1291 26.0089 39.145C26.0246 48.3217 33.2874 55.8468 42.4578 56.188H42.4812C42.8216 56.1879 43.101 55.9188 43.1139 55.5787Z" fill="white"/>
<path d="M51.6087 30.5912C51.3614 30.344 50.9605 30.344 50.7132 30.5912L43.9074 37.3964C43.3932 37.1671 42.8059 37.1671 42.2918 37.3964L39.0694 34.174C38.8178 33.931 38.4168 33.938 38.1739 34.1896C37.9368 34.435 37.9368 34.8241 38.1739 35.0695L41.3899 38.2856C40.9384 39.2308 41.3386 40.3632 42.284 40.8147C43.0095 41.1613 43.8748 41.0127 44.4432 40.444C45.0147 39.8773 45.1619 39.0096 44.8093 38.2862L51.6087 31.4867C51.856 31.2394 51.856 30.8385 51.6087 30.5912ZM43.5478 39.5476C43.5478 39.5477 43.5478 39.5477 43.5477 39.5478C43.2972 39.7873 42.9026 39.7873 42.6522 39.5478C42.4048 39.3005 42.4048 38.8995 42.652 38.6521C42.8993 38.4047 43.3003 38.4047 43.5477 38.6519C43.7951 38.8993 43.7951 39.3003 43.5478 39.5476Z" fill="white"/>
</g>
<defs>
<filter id="filter0_d_2369_7" x="0" y="0" width="90" height="90" filterUnits="userSpaceOnUse" color-interpolation-filters="sRGB">
<feFlood flood-opacity="0" result="BackgroundImageFix"/>
<feColorMatrix in="SourceAlpha" type="matrix" values="0 0 0 0 0 0 0 0 0 0 0 0 0 0 0 0 0 0 127 0" result="hardAlpha"/>
<feOffset dy="4"/>
<feGaussianBlur stdDeviation="5"/>
<feComposite in2="hardAlpha" operator="out"/>
<feColorMatrix type="matrix" values="0 0 0 0 0 0 0 0 0 0 0 0 0 0 0 0 0 0 0.1 0"/>
<feBlend mode="normal" in2="BackgroundImageFix" result="effect1_dropShadow_2369_7"/>
<feBlend mode="normal" in="SourceGraphic" in2="effect1_dropShadow_2369_7" result="shape"/>
</filter>
<clipPath id="clip0_2369_7">
<rect width="38" height="38" fill="white" transform="translate(26 22)"/>
</clipPath>
</defs>
</svg>
