<svg width="90" height="90" viewBox="0 0 90 90" fill="none" xmlns="http://www.w3.org/2000/svg">
<g filter="url(#filter0_d_2369_4)">
<path d="M10 26C10 14.9543 18.9543 6 30 6H60C71.0457 6 80 14.9543 80 26V76H30C18.9543 76 10 67.0457 10 56V26Z" fill="#FF5500"/>
</g>
<g clip-path="url(#clip0_2369_4)">
<path d="M51.75 22C51.3418 22 51.0078 22.334 51.0078 22.7422V26.1562C51.0078 26.5645 51.3418 26.8984 51.75 26.8984C52.1582 26.8984 52.4922 26.5645 52.4922 26.1562V22.7422C52.4922 22.334 52.1582 22 51.75 22Z" fill="white"/>
<path d="M34.6797 45.1562C34.2715 45.1562 33.9375 45.4902 33.9375 45.8984C33.9375 46.3066 34.2715 46.6406 34.6797 46.6406C35.0879 46.6406 35.4219 46.3066 35.4219 45.8984C35.4219 45.4902 35.0879 45.1562 34.6797 45.1562Z" fill="white"/>
<path d="M62.1406 43.6719C62.1406 42.0316 60.8121 40.7031 59.1719 40.7031H53.6277C54.4887 38.5063 54.8301 35.9234 54.7633 33.6152C54.7484 33.1773 54.7336 32.925 54.7113 32.7617C54.6742 31.1586 53.3531 29.8672 51.7426 29.8672C50.1023 29.8672 48.7738 31.1957 48.7738 32.8359V33.5781C48.7738 38.2688 42.7473 40.9109 38.1977 42.0391C37.8562 41.2523 37.0695 40.7031 36.1566 40.7031H28.7422C28.334 40.7031 28 41.0371 28 41.4453V59.2578C28 59.666 28.334 60 28.7422 60H36.1641C37.0695 60 37.8488 59.4582 38.1977 58.6789C38.5762 58.7754 38.925 58.8645 39.2441 58.9535C41.8344 59.6289 43.2594 60 46.7328 60H54.7188C56.359 60 57.6875 58.6715 57.6875 57.0312C57.6875 56.4227 57.502 55.8512 57.1828 55.3836C58.3258 54.9828 59.1719 53.8844 59.1719 52.5781C59.1719 51.9695 58.9937 51.398 58.6746 50.923C59.8176 50.5223 60.6562 49.4312 60.6562 48.125C60.6562 47.5164 60.4707 46.9449 60.1516 46.4773C61.302 46.0766 62.1406 44.9781 62.1406 43.6719ZM36.9062 57.7734C36.9062 58.1816 36.5723 58.5156 36.1641 58.5156H29.4844V42.1875H36.1641C36.5723 42.1875 36.9062 42.5215 36.9062 42.9297V57.7734ZM59.1719 45.1562C57.5836 45.1562 57.1977 45.1562 55.4609 45.1562C55.0527 45.1562 54.7188 45.4902 54.7188 45.8984C54.7188 46.3066 55.0527 46.6406 55.4609 46.6406H57.6875C58.5039 46.6406 59.1719 47.3086 59.1719 48.125C59.1719 48.9414 58.5039 49.6094 57.6875 49.6094H53.9766C53.5684 49.6094 53.2344 49.9434 53.2344 50.3516C53.2344 50.7598 53.5684 51.0938 53.9766 51.0938H56.2031C57.0121 51.0938 57.6875 51.7395 57.6875 52.5781C57.6875 53.3945 57.0195 54.0625 56.2031 54.0625C54.6148 54.0625 54.2289 54.0625 52.4922 54.0625C52.084 54.0625 51.75 54.3965 51.75 54.8047C51.75 55.2129 52.084 55.5469 52.4922 55.5469H54.7188C55.5352 55.5469 56.2031 56.2148 56.2031 57.0312C56.2031 57.8477 55.5352 58.5156 54.7188 58.5156H46.7402C43.4598 58.5156 42.1758 58.1816 39.6227 57.5137C39.2516 57.4172 38.8359 57.3059 38.3906 57.1945V43.5234C43.7641 42.2469 50.2656 39.1223 50.2656 33.5781V32.8359C50.2656 32.0195 50.9336 31.3516 51.75 31.3516C52.5664 31.3516 53.2344 32.0195 53.2344 32.8359C53.2344 33.1551 53.6352 37.1184 52.0246 40.7031H49.5234C49.1152 40.7031 48.7812 41.0371 48.7812 41.4453C48.7812 41.8535 49.1152 42.1875 49.5234 42.1875C50.043 42.1875 58.3258 42.1875 59.1719 42.1875C59.9883 42.1875 60.6562 42.8555 60.6562 43.6719C60.6562 44.4883 59.9883 45.1562 59.1719 45.1562Z" fill="white"/>
<path d="M34.6797 48.125C34.2715 48.125 33.9375 48.459 33.9375 48.8672V54.8047C33.9375 55.2129 34.2715 55.5469 34.6797 55.5469C35.0879 55.5469 35.4219 55.2129 35.4219 54.8047V48.8672C35.4219 48.459 35.0879 48.125 34.6797 48.125Z" fill="white"/>
<path d="M45.8125 31.3516H42.8438C42.4355 31.3516 42.1016 31.6855 42.1016 32.0938C42.1016 32.502 42.4355 32.8359 42.8438 32.8359H45.8125C46.2207 32.8359 46.5547 32.502 46.5547 32.0938C46.5547 31.6855 46.2207 31.3516 45.8125 31.3516Z" fill="white"/>
<path d="M60.6562 31.3516H57.6875C57.2793 31.3516 56.9453 31.6855 56.9453 32.0938C56.9453 32.502 57.2793 32.8359 57.6875 32.8359H60.6562C61.0645 32.8359 61.3984 32.502 61.3984 32.0938C61.3984 31.6855 61.0645 31.3516 60.6562 31.3516Z" fill="white"/>
<path d="M58.571 25.2732C58.2815 24.9838 57.814 24.9838 57.5245 25.2732L55.4241 27.3736C55.1347 27.6631 55.1347 28.1307 55.4241 28.4201C55.7136 28.7096 56.1812 28.7096 56.4706 28.4201L58.571 26.3197C58.8604 26.0303 58.8604 25.5627 58.571 25.2732Z" fill="white"/>
<path d="M48.0749 27.3736L45.9745 25.2732C45.6851 24.9838 45.2175 24.9838 44.928 25.2732C44.6386 25.5627 44.6386 26.0303 44.928 26.3197L47.0284 28.4201C47.3179 28.7096 47.7854 28.7096 48.0749 28.4201C48.3643 28.1307 48.3643 27.6631 48.0749 27.3736Z" fill="white"/>
</g>
<defs>
<filter id="filter0_d_2369_4" x="0" y="0" width="90" height="90" filterUnits="userSpaceOnUse" color-interpolation-filters="sRGB">
<feFlood flood-opacity="0" result="BackgroundImageFix"/>
<feColorMatrix in="SourceAlpha" type="matrix" values="0 0 0 0 0 0 0 0 0 0 0 0 0 0 0 0 0 0 127 0" result="hardAlpha"/>
<feOffset dy="4"/>
<feGaussianBlur stdDeviation="5"/>
<feComposite in2="hardAlpha" operator="out"/>
<feColorMatrix type="matrix" values="0 0 0 0 0 0 0 0 0 0 0 0 0 0 0 0 0 0 0.1 0"/>
<feBlend mode="normal" in2="BackgroundImageFix" result="effect1_dropShadow_2369_4"/>
<feBlend mode="normal" in="SourceGraphic" in2="effect1_dropShadow_2369_4" result="shape"/>
</filter>
<clipPath id="clip0_2369_4">
<rect width="34.1406" height="38" fill="white" transform="translate(28 22)"/>
</clipPath>
</defs>
</svg>
