<svg width="122" height="122" viewBox="0 0 122 122" fill="none" xmlns="http://www.w3.org/2000/svg">
<g filter="url(#filter0_d_2459_29669)">
<path d="M11 27C11 15.9543 19.9543 7 31 7H91C102.046 7 111 15.9543 111 27V107H31C19.9543 107 11 98.0457 11 87V27Z" fill="#003580"/>
</g>
<path d="M81.405 48.026C84.6096 46.2142 86.7785 42.775 86.7785 38.8379C86.7785 33.0232 82.0483 28.2925 76.2331 28.2925C70.0334 28.2925 65.0811 33.6682 65.7472 39.9688C62.7681 38.4608 59.2337 38.4603 56.2534 39.9688C56.9196 33.682 51.9798 28.2925 45.7674 28.2925C39.9534 28.2925 35.222 33.0232 35.222 38.8379C35.222 42.7751 37.3909 46.2142 40.5965 48.026C35.3946 50.0906 31.707 55.1728 31.707 61.1015V73.9902C31.707 74.6373 32.2312 75.1623 32.8789 75.1623H46.9393V84.5357C46.9393 85.1828 47.4645 85.7077 48.1112 85.7077H73.889C74.5366 85.7077 75.0609 85.1828 75.0609 84.5357V75.1623H89.1224C89.7691 75.1623 90.2931 74.6374 90.2931 73.9902V61.1015C90.2932 55.1728 86.6056 50.0906 81.405 48.026ZM76.2329 30.6356C80.7561 30.6356 84.4343 34.3152 84.4343 38.8378C84.4343 43.3609 80.7559 47.0405 76.2329 47.0405C74.0136 47.0405 71.9455 46.1694 70.3912 44.5889C69.9607 43.7488 69.4207 42.9751 68.7913 42.2838C68.2889 41.2011 68.0302 40.043 68.0302 38.8378C68.0302 34.3153 71.7098 30.6356 76.2329 30.6356ZM69.1975 49.5813C69.0522 54.1645 65.344 57.5861 61.0006 57.5861C56.4615 57.5861 52.798 53.8853 52.798 49.3834C52.798 44.8614 56.4774 41.1818 61.0006 41.1818C65.5637 41.1818 69.3097 44.9426 69.1975 49.5813ZM37.5656 38.8379C37.5656 34.3153 41.2452 30.6358 45.7671 30.6358C50.2903 30.6358 53.9697 34.3153 53.9697 38.8379C53.9697 40.0431 53.7123 41.2013 53.2087 42.284C52.5793 42.9753 52.0391 43.7489 51.6088 44.589C50.0545 46.1695 47.9875 47.0406 45.7671 47.0406C41.2453 47.0406 37.5656 43.3609 37.5656 38.8379ZM34.0497 72.8183V61.1015C34.0497 54.6401 39.3064 49.3834 45.7671 49.3834C47.4233 49.3834 49.0118 49.7187 50.5019 50.3792C50.8326 53.895 52.8963 56.9143 55.8284 58.5715C50.6266 60.6361 46.9392 65.7189 46.9392 71.6469V72.8183H34.0497ZM72.7182 83.3645H49.2832V71.647C49.2832 65.1857 54.5398 59.9297 61.0006 59.9297C67.4615 59.9297 72.7182 65.186 72.7182 71.647V83.3645ZM87.9504 72.8183H75.0609V71.6469C75.0609 65.7189 71.3733 60.6361 66.1716 58.5715C69.1038 56.9142 71.1675 53.895 71.4982 50.3792C72.9884 49.7187 74.578 49.3834 76.233 49.3834C82.6937 49.3834 87.9502 54.6401 87.9502 61.1015V72.8183H87.9504Z" fill="white"/>
<defs>
<filter id="filter0_d_2459_29669" x="0" y="0" width="122" height="122" filterUnits="userSpaceOnUse" color-interpolation-filters="sRGB">
<feFlood flood-opacity="0" result="BackgroundImageFix"/>
<feColorMatrix in="SourceAlpha" type="matrix" values="0 0 0 0 0 0 0 0 0 0 0 0 0 0 0 0 0 0 127 0" result="hardAlpha"/>
<feMorphology radius="1" operator="dilate" in="SourceAlpha" result="effect1_dropShadow_2459_29669"/>
<feOffset dy="4"/>
<feGaussianBlur stdDeviation="5"/>
<feComposite in2="hardAlpha" operator="out"/>
<feColorMatrix type="matrix" values="0 0 0 0 0 0 0 0 0 0 0 0 0 0 0 0 0 0 0.1 0"/>
<feBlend mode="normal" in2="BackgroundImageFix" result="effect1_dropShadow_2459_29669"/>
<feBlend mode="normal" in="SourceGraphic" in2="effect1_dropShadow_2459_29669" result="shape"/>
</filter>
</defs>
</svg>
