<svg width="122" height="122" viewBox="0 0 122 122" fill="none" xmlns="http://www.w3.org/2000/svg">
<g filter="url(#filter0_d_2459_29679)">
<path d="M11 27C11 15.9543 19.9543 7 31 7H91C102.046 7 111 15.9543 111 27V107H31C19.9543 107 11 98.0457 11 87V27Z" fill="#003580"/>
</g>
<g clip-path="url(#clip0_2459_29679)">
<path d="M84.918 45.7968C88.1172 43.6288 88.9609 39.2811 86.793 36.0819C84.625 32.8827 80.2773 32.0389 77.0781 34.2069C73.8789 36.3749 73.0352 40.7225 75.2031 43.9218C75.707 44.66 76.3398 45.3046 77.0781 45.7968C73.3867 47.3671 70.9961 50.9882 70.9961 54.996V59.9999C70.9961 60.5507 71.4414 60.996 71.9922 60.996H76V58.9921H73V54.996C73 50.578 76.5859 46.9921 81.0039 46.9921C85.4219 46.9921 89.0078 50.578 89.0078 54.996V58.9921H86.0078V60.996H90.0039C90.5547 60.996 91 60.5507 91 59.9999V54.996C91 50.9882 88.6094 47.3671 84.918 45.7968ZM76 39.996C76 37.2303 78.2383 34.9921 81.0039 34.9921C83.7695 34.9921 86.0078 37.2303 86.0078 39.996C86.0078 42.7616 83.7695 44.9999 81.0039 44.9999C78.2383 44.9999 76 42.7616 76 39.996Z" fill="white"/>
<path d="M31.9961 60.996H35.9922V58.9921H33.0039V54.996C33.0039 50.578 36.5898 46.9921 41.0078 46.9921C45.4258 46.9921 49.0117 50.578 49.0117 54.996V58.9921H46V60.996H49.9961C50.5469 60.996 50.9922 60.5507 50.9922 59.9999V54.996C50.9922 50.9882 48.6016 47.3671 44.9102 45.7968C48.1094 43.6288 48.9531 39.2811 46.7852 36.0819C44.6172 32.8827 40.2695 32.0389 37.0703 34.2069C33.8711 36.3749 33.0273 40.7225 35.1953 43.9218C35.6992 44.66 36.332 45.3046 37.0703 45.7968C33.3906 47.3671 31 50.9882 31 54.996V59.9999C31 60.5507 31.4453 60.996 31.9961 60.996ZM36.0039 39.996C36.0039 37.2303 38.2422 34.9921 41.0078 34.9921C43.7734 34.9921 46 37.2421 46 39.996C46 42.7499 43.7617 44.9999 40.9961 44.9999C38.2305 44.9999 36.0039 42.7616 36.0039 39.996Z" fill="white"/>
<path d="M51.0039 77.0038C51.0039 77.5546 51.4492 77.9999 52 77.9999H55.9961V75.996H52.9961V71.9999C52.9961 67.5819 56.582 63.996 61 63.996C65.418 63.996 69.0039 67.5819 69.0039 71.9999V75.996H66.0039V77.9999H70C70.5508 77.9999 70.9961 77.5546 70.9961 77.0038V71.9999C70.9961 67.9921 68.6055 64.371 64.9141 62.8007C68.1133 60.6327 68.957 56.285 66.7891 53.0858C64.6211 49.8866 60.2734 49.0428 57.0742 51.2108C53.875 53.3788 53.0312 57.7264 55.1992 60.9257C55.7031 61.6639 56.3359 62.3085 57.0742 62.8007C53.3828 64.371 50.9922 67.9921 50.9922 71.9999V77.0038H51.0039ZM55.9961 56.9999C55.9961 54.2343 58.2344 51.996 61 51.996C63.7656 51.996 66.0039 54.2343 66.0039 56.9999C66.0039 59.7655 63.7656 62.0038 61 62.0038C58.2344 62.0038 55.9961 59.7655 55.9961 56.9999Z" fill="white"/>
<path d="M51.0039 48.996H53.0078C53.0078 44.578 56.5938 40.9921 61.0117 40.9921C65.4297 40.9921 69.0156 44.578 69.0156 48.996H71.0195C71.0195 44.9882 68.6289 41.3671 64.9375 39.7968C68.1367 37.6288 68.9805 33.2811 66.8125 30.0819C64.6328 26.8827 60.2852 26.0389 57.0742 28.2069C53.8633 30.3749 53.0313 34.7225 55.1992 37.9218C55.7031 38.66 56.3359 39.3046 57.0742 39.7968C53.3945 41.3671 51.0039 44.9882 51.0039 48.996ZM55.9961 33.996C55.9961 31.2303 58.2344 28.9921 61 28.9921C63.7656 28.9921 66.0039 31.2303 66.0039 33.996C66.0039 36.7616 63.7656 38.9999 61 38.9999C58.2344 38.9999 55.9961 36.7616 55.9961 33.996Z" fill="white"/>
<path d="M82 67.8633C84.1445 67.3125 85.4219 65.1328 84.8711 62.9883C84.3203 60.8438 82.1406 59.5664 79.9961 60.1172C77.8516 60.668 76.5742 62.8477 77.125 64.9922C77.4883 66.3985 78.5898 67.5 79.9961 67.8633V80.0039H68.9922V82.0078H91V80.0039H82V67.8633ZM79 63.9961C79 62.8946 79.8906 61.9922 81.0039 61.9922C82.1172 61.9922 83.0078 62.8828 83.0078 63.9961C83.0078 65.1094 82.1172 66 81.0039 66C79.8906 66 79 65.1094 79 63.9961Z" fill="white"/>
<path d="M52.9961 80.0039H42.0039V67.8633C44.1484 67.3125 45.4258 65.1328 44.875 62.9883C44.3242 60.8438 42.1445 59.5664 40 60.1172C37.8555 60.668 36.5781 62.8477 37.1289 64.9922C37.4922 66.3985 38.5938 67.5 40 67.8633V80.0039H31V82.0078H52.9961V80.0039ZM39.0039 63.9961C39.0039 62.8946 39.8945 61.9922 41.0078 61.9922C42.1211 61.9922 43.0117 62.8828 43.0117 63.9961C43.0117 65.1094 42.1211 66 41.0078 66C39.8945 66 39.0039 65.1094 39.0039 63.9961Z" fill="white"/>
<path d="M61.9961 87V84.8555C63.4023 84.4922 64.4922 83.3906 64.8555 81.9961H67V79.9922H64.8555C64.4922 78.5859 63.3906 77.4961 61.9961 77.1328V74.9883H59.9922V77.1328C58.5859 77.4961 57.4961 78.5977 57.1328 79.9922H54.9883V81.9961H57.1328C57.4961 83.4023 58.5977 84.4922 59.9922 84.8555V87H61.9961ZM58.9961 81C58.9961 79.8984 59.8867 78.9961 61 78.9961C62.1016 78.9961 63.0039 79.8867 63.0039 81C63.0039 82.1133 62.1133 83.0039 61 83.0039C59.8984 83.0039 58.9961 82.1016 58.9961 81Z" fill="white"/>
</g>
<defs>
<filter id="filter0_d_2459_29679" x="0" y="0" width="122" height="122" filterUnits="userSpaceOnUse" color-interpolation-filters="sRGB">
<feFlood flood-opacity="0" result="BackgroundImageFix"/>
<feColorMatrix in="SourceAlpha" type="matrix" values="0 0 0 0 0 0 0 0 0 0 0 0 0 0 0 0 0 0 127 0" result="hardAlpha"/>
<feMorphology radius="1" operator="dilate" in="SourceAlpha" result="effect1_dropShadow_2459_29679"/>
<feOffset dy="4"/>
<feGaussianBlur stdDeviation="5"/>
<feComposite in2="hardAlpha" operator="out"/>
<feColorMatrix type="matrix" values="0 0 0 0 0 0 0 0 0 0 0 0 0 0 0 0 0 0 0.1 0"/>
<feBlend mode="normal" in2="BackgroundImageFix" result="effect1_dropShadow_2459_29679"/>
<feBlend mode="normal" in="SourceGraphic" in2="effect1_dropShadow_2459_29679" result="shape"/>
</filter>
<clipPath id="clip0_2459_29679">
<rect width="60" height="60" fill="white" transform="translate(31 27)"/>
</clipPath>
</defs>
</svg>
