<svg width="122" height="122" viewBox="0 0 122 122" fill="none" xmlns="http://www.w3.org/2000/svg">
<g filter="url(#filter0_d_2459_29704)">
<path d="M11 27C11 15.9543 19.9543 7 31 7H91C102.046 7 111 15.9543 111 27V107H31C19.9543 107 11 98.0457 11 87V27Z" fill="#003580"/>
</g>
<g clip-path="url(#clip0_2459_29704)">
<path d="M84.2734 62.4844L83.9688 62.6485C82.7266 61.1368 80.5703 60.5508 78.918 61.3828L78.9062 61.3946L78.1797 61.7813C76.3984 60.2813 73.8672 60.0469 71.8516 61.2071L67.9375 63.3399H62.7227C61.5977 63.3399 60.4844 63.0821 59.4648 62.5899L58.75 62.2383C54.5898 60.211 49.6328 60.6914 45.9414 63.4922C45.9297 63.5039 45.9062 63.5157 45.8945 63.5274L44.1484 65.086C43.4922 65.6719 42.7188 66.0938 41.8867 66.3516L40.9023 63.1289C40.7969 62.8008 40.5039 62.5782 40.1523 62.5782H31.7852C31.3516 62.5782 31 62.9297 31 63.3633C31 63.3985 31 63.4219 31 63.4571L33.7891 86.3438C33.8359 86.7305 34.1641 87.0235 34.5625 87.0235H47.125C47.5586 87.0235 47.9102 86.6719 47.9102 86.2383C47.9102 86.1563 47.8984 86.086 47.875 86.0157L46.2227 80.6016L51.3672 77.3555C52.0586 76.9805 52.8672 76.875 53.6289 77.0625C53.6406 77.0625 53.6641 77.0743 53.6758 77.0743L64.1289 78.9961C66.9648 79.5 69.8945 79.0899 72.4844 77.8125C72.5195 77.8008 72.5547 77.7774 72.5781 77.754L90.6602 65.3438C91 65.1094 91.0938 64.6524 90.8828 64.3008C89.5234 62.0157 86.6055 61.2188 84.2734 62.4844ZM79.6328 62.7657C80.582 62.2852 81.7773 62.6836 82.5391 63.4102L75.6836 67.1133L75.2852 67.3243C75.0625 66.7032 74.7461 66.1289 74.3477 65.6133L79.6328 62.7657ZM72.6016 62.5782C72.6133 62.5782 72.6133 62.5664 72.625 62.5664C73.8789 61.8399 75.4258 61.8633 76.6562 62.6016L73.1758 64.4766C72.5078 63.9961 71.7578 63.6446 70.9492 63.4688L72.6016 62.5782ZM35.2656 85.4532L32.6641 64.125H39.5781L46.082 85.4532H35.2656ZM71.7461 76.4297C69.4727 77.543 66.8945 77.8946 64.4102 77.4493L53.9805 75.5274C52.832 75.2461 51.625 75.4102 50.5938 75.9844C50.582 75.9961 50.5703 75.9961 50.5586 76.0079L45.7656 79.043L42.3438 67.8399C43.3984 67.5235 44.3711 66.9844 45.1914 66.2461L46.9023 64.7227C50.125 62.2969 54.4375 61.8868 58.0703 63.6446L58.7852 63.9961C60.0156 64.5938 61.3633 64.8985 62.7227 64.8985H69.6719C71.7812 64.8985 73.5859 66.3985 73.9844 68.4727L68.9453 68.25C67.1172 68.168 65.2773 68.25 63.4609 68.5079C63.0391 68.5665 62.7461 68.9649 62.8047 69.3985C62.8633 69.8204 63.25 70.1133 63.6719 70.0547C65.3945 69.8204 67.1406 69.7383 68.875 69.8204L74.8047 70.0899C74.8164 70.0899 74.8281 70.0899 74.8398 70.0899C75.2734 70.0899 75.625 69.7383 75.625 69.3047C75.625 69.1758 75.625 69.0586 75.6133 68.9297L76.4219 68.4961L85.0117 63.8555C86.3711 63.1172 88.0469 63.3868 89.1133 64.5118L71.7461 76.4297Z" fill="white"/>
<path d="M37.7383 82.2305C37.7383 83.5898 38.8398 84.6797 40.1875 84.6797C41.5352 84.6797 42.6367 83.5781 42.6367 82.2305C42.6367 80.8711 41.5352 79.7812 40.1875 79.7812C38.8398 79.7812 37.7383 80.8711 37.7383 82.2305ZM40.1992 81.3281C40.6914 81.3281 41.0898 81.7266 41.0898 82.2188C41.0898 82.7109 40.6914 83.1094 40.1992 83.1094C39.707 83.1094 39.3086 82.7109 39.3086 82.2188C39.2969 81.7383 39.6953 81.3398 40.1992 81.3281Z" fill="white"/>
<path d="M66.9297 35.4727V32.9063C66.9062 29.6368 64.2461 27 60.9883 27.0118C57.7422 27.0235 55.1172 29.6602 55.0938 32.9063V35.4727C55.1055 38.7422 57.7656 41.3789 61.0352 41.3672C64.2812 41.3438 66.918 38.7188 66.9297 35.4727ZM56.6523 35.4727V32.9063C56.6641 30.5039 58.6328 28.5586 61.0352 28.5704C63.4258 28.5821 65.3594 30.5157 65.3711 32.9063V35.4727C65.3594 37.875 63.3906 39.8203 60.9883 39.8086C58.5977 39.7969 56.6641 37.8633 56.6523 35.4727Z" fill="white"/>
<path d="M51.4727 57.4456H70.5508C70.9844 57.4456 71.3359 57.094 71.3359 56.6604V54.8674H84.3906C84.8242 54.8674 85.1758 54.5159 85.1758 54.0823V49.0315C85.1758 45.9495 82.7851 43.3948 79.7031 43.2073C79.293 43.1721 79.0703 43.4417 78.8945 43.6526C77.6406 45.176 75.3906 45.4104 73.8555 44.1565C73.6211 43.969 73.4219 43.7581 73.2461 43.512C73.0937 43.3127 72.8594 43.1838 72.6016 43.1956C71.5937 43.219 70.5976 43.512 69.7305 44.0276C68.5703 42.6799 66.9297 41.8713 65.1602 41.7542C64.7617 41.7424 64.5508 41.9768 64.3516 42.2229C62.8867 44.0159 60.2383 44.2854 58.4453 42.8088C58.1758 42.5862 57.9414 42.3401 57.7305 42.0588C57.5781 41.8596 57.3437 41.7307 57.0859 41.7424C55.375 41.7776 53.7461 42.4924 52.5625 43.7229C52.4687 43.8284 52.375 43.9221 52.2812 44.0393C51.4727 43.5471 50.5586 43.2659 49.6211 43.2073C49.2109 43.1721 48.9883 43.4417 48.8125 43.6526C47.5586 45.176 45.3086 45.4104 43.7734 44.1565C43.5391 43.969 43.3398 43.7581 43.1641 43.512C43.0117 43.3127 42.7773 43.1956 42.5195 43.1956C39.3555 43.2776 36.8242 45.8674 36.8242 49.0315V54.094C36.8242 54.5276 37.1758 54.8791 37.6094 54.8791H50.6875V56.6721C50.6875 57.094 51.0391 57.4456 51.4727 57.4456ZM72.2734 44.7776C74.1484 46.9104 77.3945 47.1096 79.5273 45.2346C79.6797 45.094 79.832 44.9534 79.9726 44.801C82.0703 45.1174 83.6172 46.9221 83.6172 49.0315V53.3088H71.3242V48.3049C71.3242 47.262 71.0781 46.2424 70.6094 45.3167C71.1133 45.0354 71.6875 44.8479 72.2734 44.7776ZM56.7461 43.3362C58.8203 45.7385 62.4648 46.0081 64.8672 43.9338C65.0781 43.7581 65.2656 43.5706 65.4414 43.3596C67.9141 43.6995 69.7656 45.8206 69.7656 48.3167V55.887H52.2461V48.3167C52.2695 45.7502 54.2031 43.6174 56.7461 43.3362ZM38.3945 53.3206V49.0315C38.4062 46.8635 40.0352 45.0354 42.1914 44.7776C44.0664 46.9104 47.3125 47.1096 49.4453 45.2346C49.5977 45.094 49.75 44.9534 49.8906 44.801C50.4297 44.8831 50.9453 45.0588 51.4141 45.3401C50.9453 46.2659 50.6992 47.2854 50.6992 48.3167V53.3206H38.3945Z" fill="white"/>
<path d="M81.3086 37.793V35.543C81.3086 32.625 78.9414 30.2695 76.0352 30.2695C73.1172 30.2695 70.7617 32.6367 70.7617 35.543V37.793C70.7617 40.7109 73.1289 43.0664 76.0352 43.0664C78.9531 43.0664 81.3086 40.7109 81.3086 37.793ZM72.3203 37.793V35.543C72.3203 33.4922 73.9844 31.8281 76.0352 31.8281C78.0859 31.8281 79.75 33.4922 79.75 35.543V37.793C79.75 39.8437 78.0859 41.5078 76.0352 41.5078C73.9844 41.5078 72.3203 39.8437 72.3203 37.793Z" fill="white"/>
<path d="M51.2383 37.793V35.543C51.2383 32.625 48.8711 30.2695 45.9648 30.2695C43.0586 30.2695 40.6914 32.6367 40.6914 35.543V37.793C40.6914 40.7109 43.0586 43.0664 45.9648 43.0664C48.8711 43.0664 51.2383 40.7109 51.2383 37.793ZM42.25 37.793V35.543C42.25 33.4922 43.9141 31.8281 45.9648 31.8281C48.0156 31.8281 49.6797 33.4922 49.6797 35.543V37.793C49.6797 39.8437 48.0156 41.5078 45.9648 41.5078C43.9141 41.5078 42.25 39.8437 42.25 37.793Z" fill="white"/>
</g>
<defs>
<filter id="filter0_d_2459_29704" x="0" y="0" width="122" height="122" filterUnits="userSpaceOnUse" color-interpolation-filters="sRGB">
<feFlood flood-opacity="0" result="BackgroundImageFix"/>
<feColorMatrix in="SourceAlpha" type="matrix" values="0 0 0 0 0 0 0 0 0 0 0 0 0 0 0 0 0 0 127 0" result="hardAlpha"/>
<feMorphology radius="1" operator="dilate" in="SourceAlpha" result="effect1_dropShadow_2459_29704"/>
<feOffset dy="4"/>
<feGaussianBlur stdDeviation="5"/>
<feComposite in2="hardAlpha" operator="out"/>
<feColorMatrix type="matrix" values="0 0 0 0 0 0 0 0 0 0 0 0 0 0 0 0 0 0 0.1 0"/>
<feBlend mode="normal" in2="BackgroundImageFix" result="effect1_dropShadow_2459_29704"/>
<feBlend mode="normal" in="SourceGraphic" in2="effect1_dropShadow_2459_29704" result="shape"/>
</filter>
<clipPath id="clip0_2459_29704">
<rect width="60" height="60" fill="white" transform="translate(31 27)"/>
</clipPath>
</defs>
</svg>
