<svg width="122" height="122" viewBox="0 0 122 122" fill="none" xmlns="http://www.w3.org/2000/svg">
<g filter="url(#filter0_d_2459_29695)">
<path d="M11 27C11 15.9543 19.9543 7 31 7H91C102.046 7 111 15.9543 111 27V107H31C19.9543 107 11 98.0457 11 87V27Z" fill="#003580"/>
</g>
<g clip-path="url(#clip0_2459_29695)">
<path d="M91 52.1613H88.8254L85.5843 53.8667C85.2195 53.6654 84.8401 53.4948 84.4309 53.3922L80.3539 52.372V51.9085C82.1575 50.6497 83.2581 48.5701 83.2581 46.3548V44.6632C83.2581 40.9037 80.3123 37.7576 76.6918 37.648C76.508 37.6433 76.327 37.6499 76.1451 37.6589L77.2021 35.1842L72.0775 30.0611L69.0566 32.0272C67.9089 31.3808 66.6949 30.8776 65.4342 30.5246L64.6881 27H57.3128L56.5667 30.5255C55.306 30.8785 54.0911 31.3818 52.9443 32.0282L49.9234 30.062L44.8031 35.1823L45.8422 37.6589C45.8025 37.657 45.7647 37.6499 45.725 37.6489C43.8717 37.5951 42.1262 38.2713 40.8003 39.5584C39.4725 40.8447 38.7419 42.5708 38.7419 44.4194V46.3548C38.7419 48.5701 39.8415 50.6487 41.6452 51.9075V52.372L38.9858 53.0369L34.1655 50.2258H31V70.2786L40.5205 73.4516H42.3747L42.6063 72.6408L45.5246 74.3924C45.5724 75.9792 46.8449 77.256 48.4302 77.3117C48.486 78.8904 49.7547 80.1592 51.3334 80.2149C51.3892 81.7937 52.6579 83.0624 54.2367 83.1182C54.2943 84.7337 55.6174 86.0323 57.2462 86.0323C57.8511 86.0323 58.4441 85.8437 58.9426 85.5077L59.7998 86.2647C60.337 86.7377 61.0288 87 61.7471 87H61.9262C63.5365 87 64.8469 85.6982 64.8672 84.093C66.4601 84.0727 67.7501 82.7827 67.7704 81.1898C69.3643 81.1694 70.6552 79.8776 70.6736 78.2837C72.2821 78.2459 73.5806 76.9318 73.5806 75.3143C73.5806 75.217 73.5759 75.1211 73.566 75.0242L91 66.3079V52.1613ZM81.3226 44.6632V46.3548C81.3226 48.0725 80.3945 49.6772 78.9004 50.5424L78.4165 50.8221L78.4203 53.8846L83.2552 55.0924L72.6129 60.6938V58.0868C72.6129 56.7859 72.0874 55.5947 71.227 54.7144L74.5484 53.8846V50.8198L74.0655 50.5405C72.5723 49.6772 71.6452 48.0725 71.6452 46.3548V44.4194C71.6452 43.0996 72.1668 41.8653 73.1152 40.9463C74.0626 40.0277 75.3196 39.5324 76.6337 39.5835C79.2189 39.661 81.3226 41.94 81.3226 44.6632ZM62.4592 59.933L58.0783 58.5329C56.0819 57.8931 53.921 57.7976 51.8773 58.2503L51.3226 58.3732V58.0868C51.3226 56.7524 52.2275 55.5938 53.5213 55.2696L59.0645 53.8846V50.8198L58.5816 50.5405C57.0884 49.6772 56.1613 48.0725 56.1613 46.3548V44.4194C56.1613 43.0996 56.683 41.8653 57.6313 40.9463C58.5788 40.0277 59.8437 39.5324 61.1498 39.5835C63.735 39.661 65.8387 41.94 65.8387 44.6632V46.3548C65.8387 48.0725 64.9107 49.6772 63.4165 50.5424L62.9326 50.8221L62.9364 53.8846L68.4787 55.2696C69.7725 55.5938 70.6774 56.7524 70.6774 58.0868V61.713L70.4383 61.8387H69.8453L63.8957 60.1385C63.4269 60.0058 62.944 59.9514 62.4592 59.933ZM51.5395 41.484C53.3568 37.9627 57.0147 35.7097 61 35.7097C64.9475 35.7097 68.5898 37.9325 70.4208 41.406C69.9601 42.3298 69.7097 43.3529 69.7097 44.4194V46.3548C69.7097 48.5701 70.8093 50.6487 72.6129 51.9075V52.372L68.7419 53.3412L64.87 52.372V51.9085C66.6737 50.6497 67.7742 48.5701 67.7742 46.3548V44.6632C67.7742 40.9037 64.8284 37.7576 61.2079 37.648C59.3556 37.5937 57.6091 38.2703 56.2832 39.5575C54.9563 40.8447 54.2258 42.5708 54.2258 44.4194V46.3548C54.2258 48.5701 55.3254 50.6487 57.129 51.9075V52.372L53.2581 53.3412L49.3862 52.372V51.9085C51.1898 50.6497 52.2903 48.5701 52.2903 46.3548V44.6632C52.2903 43.5244 52.0163 42.4432 51.5395 41.484ZM47.0887 35.6312L50.1805 32.5395L52.9018 34.3105L53.4225 33.9911C54.7272 33.1916 56.1372 32.6061 57.6129 32.2531L58.2083 32.1104L58.8816 28.9355H63.1193L63.7908 32.1095L64.3862 32.2517C65.8619 32.6052 67.2719 33.1906 68.5765 33.9901L69.0973 34.3096L71.8186 32.5385L74.9066 35.6275L73.8089 38.1975C73.0618 38.5189 72.3691 38.9711 71.7661 39.5556C71.7264 39.5943 71.6924 39.6359 71.6537 39.6756C69.3737 36.0513 65.343 33.7742 61 33.7742C56.6258 33.7742 52.5838 36.0726 50.3095 39.7337C49.7009 39.0968 48.9769 38.5808 48.1746 38.2202L47.0887 35.6312ZM43.5806 53.8846V50.8198L43.0977 50.5405C41.6045 49.6772 40.6774 48.0725 40.6774 46.3548V44.4194C40.6774 43.0996 41.1991 41.8653 42.1475 40.9463C43.0949 40.0277 44.3546 39.5324 45.6659 39.5835C48.2511 39.661 50.3548 41.94 50.3548 44.6632V46.3548C50.3548 48.0725 49.4268 49.6772 47.9326 50.5424L47.4488 50.8221L47.4526 53.8846L50.773 54.7144C49.9125 55.5947 49.3871 56.7859 49.3871 58.0868V58.8036L46.3686 59.4746L46.447 59.2006L46.4839 57.412L41.3801 54.4346L43.5806 53.8846ZM32.9355 52.1613H33.641L40.6009 56.2208L37.089 70.2677L32.9355 68.8827V52.1613ZM40.8343 71.5161L38.9295 70.8815L42.3412 57.2363L44.5484 58.5234V58.7999L40.9156 71.5161H40.8343ZM47.4516 74.3022C47.4516 74.0168 47.5669 73.737 47.7692 73.5348L49.4703 71.8337C49.6725 71.6314 49.9522 71.5161 50.2376 71.5161C50.8359 71.5161 51.3226 72.0028 51.3226 72.6011C51.3226 72.8865 51.2073 73.1662 51.005 73.3684L49.3039 75.0696C49.1017 75.2718 48.822 75.3871 48.5365 75.3871C47.9383 75.3871 47.4516 74.9004 47.4516 74.3022ZM50.3548 77.2054C50.3548 76.92 50.4701 76.6402 50.6724 76.438L52.3735 74.7369C52.5757 74.5346 52.8555 74.4194 53.1409 74.4194C53.7391 74.4194 54.2258 74.9061 54.2258 75.5043C54.2258 75.7897 54.1105 76.0694 53.9083 76.2717L52.2072 77.9728C52.0049 78.175 51.7252 78.2903 51.4398 78.2903C50.8415 78.2903 50.3548 77.8036 50.3548 77.2054ZM53.2581 80.1086C53.2581 79.8232 53.3734 79.5435 53.5756 79.3412L55.2767 77.6401C55.479 77.4379 55.7587 77.3226 56.0441 77.3226C56.6423 77.3226 57.129 77.8093 57.129 78.4075C57.129 78.6929 57.0137 78.9727 56.8115 79.1749L55.1104 80.876C54.9081 81.0783 54.6284 81.1935 54.343 81.1935C53.7448 81.1935 53.2581 80.7068 53.2581 80.1086ZM57.2462 84.0968C56.648 84.0968 56.1613 83.6101 56.1613 83.0118C56.1613 82.7264 56.2766 82.4467 56.4788 82.2445L58.1799 80.5433C58.3822 80.3411 58.6619 80.2258 58.9473 80.2258C59.5456 80.2258 60.0323 80.7125 60.0323 81.3107C60.0323 81.5961 59.917 81.8759 59.7147 82.0781L58.0136 83.7792C57.8114 83.9815 57.5316 84.0968 57.2462 84.0968ZM61.9262 85.0645H61.7471C61.5004 85.0645 61.2641 84.9747 61.0803 84.8117L60.3564 84.1733L61.0832 83.4466C61.3426 83.1872 61.5439 82.8786 61.6927 82.5473L62.5726 83.2798C62.8027 83.4716 62.9355 83.7542 62.9355 84.0552C62.9355 84.6118 62.4828 85.0645 61.9262 85.0645ZM70.6046 76.3548H70.4374C70.1945 76.3548 69.9573 76.2688 69.7716 76.1129L64.5237 71.7396L63.2837 73.2272L68.38 77.4733C68.6092 77.6652 68.7419 77.9477 68.7419 78.2487C68.7419 78.8054 68.2892 79.2581 67.7326 79.2581H67.5214C67.2865 79.2581 67.0569 79.1749 66.8759 79.0237L61.6195 74.6438L60.3796 76.1313L65.4758 80.378C65.7059 80.5684 65.8387 80.851 65.8387 81.152C65.8387 81.7086 65.386 82.1613 64.8294 82.1613C64.458 82.1613 64.096 82.0295 63.8111 81.7927L61.6511 79.9924C61.1753 79.0199 60.1976 78.3418 59.0527 78.3012C58.9969 76.7225 57.7282 75.4537 56.1495 75.398C56.0937 73.8192 54.825 72.5505 53.2463 72.4947C53.1895 70.8792 51.8665 69.5806 50.2376 69.5806C49.4424 69.5806 48.6641 69.9029 48.1018 70.4652L46.4007 72.1663C46.2991 72.2679 46.215 72.3832 46.1295 72.4976L43.1568 70.7138L45.7628 61.593L52.296 60.1404C54.0099 59.7572 55.8168 59.8404 57.4882 60.3753L58.9138 60.8313L54.0807 63.2478C52.9764 63.8011 52.2903 64.912 52.2903 66.1472V66.3386C52.2903 68.1262 53.7448 69.5806 55.5324 69.5806C56.1197 69.5806 56.6976 69.4209 57.1999 69.118L60.8034 66.9572C61.5273 66.5234 62.4989 66.6184 63.124 67.1807L71.3007 74.5394C71.5195 74.7378 71.6452 75.0195 71.6452 75.3143C71.6452 75.8885 71.1788 76.3548 70.6046 76.3548ZM89.0645 65.1115L72.7608 73.264C72.7079 73.2078 72.6526 73.1544 72.5945 73.1024L64.4192 65.7437C63.7029 65.0973 62.7767 64.7419 61.8118 64.7419C61.1063 64.7419 60.4136 64.9338 59.8069 65.2976L56.2019 67.4595C55.9997 67.5814 55.7686 67.6452 55.5324 67.6452C54.8113 67.6452 54.2258 67.0597 54.2258 66.3386V66.1472C54.2258 65.6487 54.5027 65.2017 54.9478 64.9791L60.346 62.2801C61.2698 61.8174 62.3666 61.714 63.3622 62.0003L69.4436 63.7373L70.9165 63.7742L89.0645 54.2225V65.1115Z" fill="white"/>
</g>
<defs>
<filter id="filter0_d_2459_29695" x="0" y="0" width="122" height="122" filterUnits="userSpaceOnUse" color-interpolation-filters="sRGB">
<feFlood flood-opacity="0" result="BackgroundImageFix"/>
<feColorMatrix in="SourceAlpha" type="matrix" values="0 0 0 0 0 0 0 0 0 0 0 0 0 0 0 0 0 0 127 0" result="hardAlpha"/>
<feMorphology radius="1" operator="dilate" in="SourceAlpha" result="effect1_dropShadow_2459_29695"/>
<feOffset dy="4"/>
<feGaussianBlur stdDeviation="5"/>
<feComposite in2="hardAlpha" operator="out"/>
<feColorMatrix type="matrix" values="0 0 0 0 0 0 0 0 0 0 0 0 0 0 0 0 0 0 0.1 0"/>
<feBlend mode="normal" in2="BackgroundImageFix" result="effect1_dropShadow_2459_29695"/>
<feBlend mode="normal" in="SourceGraphic" in2="effect1_dropShadow_2459_29695" result="shape"/>
</filter>
<clipPath id="clip0_2459_29695">
<rect width="60" height="60" fill="white" transform="translate(31 27)"/>
</clipPath>
</defs>
</svg>
